# xmcd
#
# Track frame offsets:
#	153
#	2310
#	17044
#	33318
#	34923
#	52421
#	68977
#	85662
#	104400
#	106594
#	125880
#	145165
#	163374
#	182590
#
# Disc length: 2736 seconds
#
# Revision: 0
# Processed by: cddbd v1.5.2PL0 Copyright (c) Steve Scherf et al.
# Submitted via: EasyCDDAExtractor 10.0.3.1
#
DISCID=bb0aae0e
DTITLE=DE SU - UCZUCIA
DYEAR=1998
DGENRE=Pop
TTITLE0=Dubik 1
TTITLE1=Imago Mundi
TTITLE2=Ufx
TTITLE3=Dubik 2
TTITLE4=Widmowy Stan
TTITLE5=Molly Malone
TTITLE6=Jezioro Niepamięci
TTITLE7=Jazzy
TTITLE8=Dubik 3
TTITLE9=Trzecie Oko
TTITLE10=Virtual
TTITLE11=Dzikość Wina
TTITLE12=Właśnie Stajesz Się
TTITLE13=Właśnie Stajesz Się - REMIX
EXTD=
EXTT0=
EXTT1=
EXTT2=
EXTT3=
EXTT4=
EXTT5=
EXTT6=
EXTT7=
EXTT8=
EXTT9=
EXTT10=
EXTT11=
EXTT12=
EXTT13=
PLAYORDER=
